<?xml version="1.0" encoding="utf-8"?>
<!-- Generator: Adobe Illustrator 24.3.0, SVG Export Plug-In . SVG Version: 6.00 Build 0)  -->
<svg version="1.1" id="Слой_1" xmlns="http://www.w3.org/2000/svg" xmlns:xlink="http://www.w3.org/1999/xlink" x="0px" y="0px"
	 viewBox="0 0 3063.04 431" style="enable-background:new 0 0 3063.04 431;" xml:space="preserve">
<path d="M1139.75,431h-53.76l0-382.13H980.11V0h265.53v48.87h-105.89L1139.75,431z"/>
<path d="M1352.06,431h-53.76V0h53.76V431z"/>
<path d="M2352.8,431l0.27-431h70.59c45.61,0,79.82,2.72,103.71,17.38c36.38,21.72,54.84,53.21,54.84,95.02
	c0,33.12-17.1,70.52-49.68,88.44c52.67,16.83,78.74,60.2,78.74,113.96c0,32.58-14.12,60.82-38.01,81.99
	c-23.89,21.18-57.56,34.21-96.65,34.21H2352.8z M2406.83,46.7l-0.27,140.02h44.53c50.5,0,77.92-32.51,77.92-73.78
	c0-43.98-27.15-66.25-81.45-66.25H2406.83z M2406.56,234.51v147.62h54.84c63.53,0,94.48-24.43,94.48-70.05
	c0-46.16-30.95-77.58-92.31-77.58H2406.56z"/>
<path d="M2204.56,0v227.18l52.67,76.77V0H2204.56z"/>
<polygon points="2278.87,431.07 2213.25,431 2003.11,123.19 1986.07,98.89 1985.73,98.41 1985.73,431 1933.06,431 1933.06,0 
	1983.56,0 2185.01,294.78 2204.56,322.6 2257.23,399.48 "/>
<path d="M1639.85-0.07c-119.06,0-215.57,96.51-215.57,215.57s96.51,215.57,215.57,215.57s215.57-96.51,215.57-215.57
	S1758.91-0.07,1639.85-0.07z M1639.85,382.2c-92.07,0-166.7-74.63-166.7-166.7s74.63-166.7,166.7-166.7s166.7,74.63,166.7,166.7
	S1731.92,382.2,1639.85,382.2z"/>
<path d="M2743.21,431h-53.76V0h53.76V431z"/>
<path d="M2957.15,431h-53.76l0-382.13h-105.88V0h265.53v48.87h-105.89L2957.15,431z"/>
<path d="M729.79-0.07c-119.06,0-215.57,96.51-215.57,215.57s96.51,215.57,215.57,215.57s215.57-96.51,215.57-215.57
	S848.85-0.07,729.79-0.07z M729.79,382.2c-92.07,0-166.7-74.63-166.7-166.7s74.63-166.7,166.7-166.7s166.7,74.63,166.7,166.7
	S821.86,382.2,729.79,382.2z"/>
<path d="M53.76,431H0V0h53.21l158.01,307.2l10.06,19.36l10.03-19.36L388.79,0h54.84v431h-54.3l3.8-289.89l0.45-34.44l-16.2,30.63
	L222.09,431L62.44,129.71l-11.64-21.97l0.24,25.77L53.76,431z"/>
</svg>
