<svg id="Layer_1" data-name="Layer 1" xmlns="http://www.w3.org/2000/svg" viewBox="0 0 3000 422.27">
	<defs>
		<style>
			.cls-1 {
				fill: #fff;
			}
		</style>
	</defs>
	<path class="cls-1" d="M1116.29,422.2h-52.65V47.93H959.94V.07H1220V47.93H1116.29Z" />
	<path class="cls-1" d="M1324.23,422.2h-52.65V.07h52.65Z" />
	<path class="cls-1"
		d="M2304.38,422.2,2304.64.07h69.14c44.67,0,78.18,2.66,101.58,17,35.63,21.27,53.71,52.12,53.71,93.07,0,32.44-16.75,69.06-48.66,86.61,51.59,16.49,77.12,59,77.12,111.62,0,31.91-13.83,59.56-37.23,80.3s-56.38,33.51-94.67,33.51Zm52.91-376.39L2357,183h43.61c49.46,0,76.31-31.84,76.31-72.26,0-43.08-26.59-64.88-79.77-64.88ZM2357,229.75V374.33h53.71c62.23,0,92.54-23.93,92.54-68.6,0-45.21-30.31-76-90.41-76Z" />
	<path class="cls-1"
		d="M1944.86,422.27h-51.58V0h49.46L2140,288.8l19.15,27.26V0h51.58V422.27H2167.7L1961.88,120.69l-17-24.28V422.27Z" />
	<path class="cls-1"
		d="M1606.1,0C1489.49,0,1395,94.52,1395,211.13s94.53,211.14,211.14,211.14,211.13-94.53,211.13-211.14S1722.71,0,1606.1,0Zm0,374.4a163.27,163.27,0,1,1,163.27-163.27A163.26,163.26,0,0,1,1606.1,374.4Z" />
	<path class="cls-1" d="M2686.76,422.2H2634.1V.07h52.66Z" />
	<path class="cls-1" d="M2896.29,422.2h-52.65V47.93h-103.7V.07H3000V47.93H2896.29Z" />
	<path class="cls-1"
		d="M714.77,0C598.16,0,503.64,94.52,503.64,211.13s94.52,211.14,211.13,211.14S925.9,327.74,925.9,211.13,831.38,0,714.77,0Zm0,374.4A163.27,163.27,0,1,1,878,211.13,163.27,163.27,0,0,1,714.77,374.4Z" />
	<path class="cls-1"
		d="M52.65,422.2H0V.07H52.12L206.88,300.94l9.86,19,9.82-19L380.79.07H434.5V422.2H381.32L385,138.27l.44-33.72-15.86,30L217.52,422.2,61.16,127.11l-11.4-21.52L50,130.83Z" />
</svg>