<?xml version="1.0" encoding="utf-8"?>
<!-- Generator: Adobe Illustrator 24.3.0, SVG Export Plug-In . SVG Version: 6.00 Build 0)  -->
<svg version="1.1" id="Слой_1" xmlns="http://www.w3.org/2000/svg" xmlns:xlink="http://www.w3.org/1999/xlink" x="0px" y="0px"
	 viewBox="0 0 3063 431" style="enable-background:new 0 0 3063 431;" xml:space="preserve">
<style type="text/css">
	.st0{fill:#FFFFFF;}
</style>
<path class="st0" d="M1139.8,431H1086V48.9H980.1V0h265.5v48.9h-105.9V431z"/>
<path class="st0" d="M1352.1,431h-53.8V0h53.8V431z"/>
<path class="st0" d="M2352.8,431l0.3-431h70.6c45.6,0,79.8,2.7,103.7,17.4c36.4,21.7,54.8,53.2,54.8,95c0,33.1-17.1,70.5-49.7,88.4
	c52.7,16.8,78.7,60.2,78.7,114c0,32.6-14.1,60.8-38,82c-23.9,21.2-57.6,34.2-96.6,34.2L2352.8,431L2352.8,431z M2406.8,46.7
	l-0.3,140h44.5c50.5,0,77.9-32.5,77.9-73.8c0-44-27.1-66.3-81.4-66.3L2406.8,46.7L2406.8,46.7z M2406.6,234.5v147.6h54.8
	c63.5,0,94.5-24.4,94.5-70c0-46.2-30.9-77.6-92.3-77.6L2406.6,234.5L2406.6,234.5z"/>
<path class="st0" d="M2204.6,0v227.2l52.7,76.8V0H2204.6z"/>
<polygon class="st0" points="2278.9,431.1 2213.3,431 2003.1,123.2 1986.1,98.9 1985.7,98.4 1985.7,431 1933.1,431 1933.1,0 
	1983.6,0 2185,294.8 2204.6,322.6 2257.2,399.5 "/>
<path class="st0" d="M1639.8-0.1c-119.1,0-215.6,96.5-215.6,215.6s96.5,215.6,215.6,215.6s215.6-96.5,215.6-215.6
	S1758.9-0.1,1639.8-0.1z M1639.8,382.2c-92.1,0-166.7-74.6-166.7-166.7s74.6-166.7,166.7-166.7s166.7,74.6,166.7,166.7
	S1731.9,382.2,1639.8,382.2z"/>
<path class="st0" d="M2743.2,431h-53.8V0h53.8V431z"/>
<path class="st0" d="M2957.1,431h-53.8V48.9h-105.9V0H3063v48.9h-105.9L2957.1,431z"/>
<path class="st0" d="M729.8-0.1c-119.1,0-215.6,96.5-215.6,215.6s96.5,215.6,215.6,215.6s215.6-96.5,215.6-215.6
	S848.8-0.1,729.8-0.1z M729.8,382.2c-92.1,0-166.7-74.6-166.7-166.7S637.7,48.8,729.8,48.8s166.7,74.6,166.7,166.7
	S821.9,382.2,729.8,382.2z"/>
<path class="st0" d="M53.8,431H0V0h53.2l158,307.2l10.1,19.4l10-19.4L388.8,0h54.8v431h-54.3l3.8-289.9l0.5-34.4l-16.2,30.6
	L222.1,431L62.4,129.7l-11.6-22l0.2,25.8L53.8,431z"/>
</svg>
